<svg xmlns="http://www.w3.org/2000/svg" viewBox="0 0 11.19 14.97"><defs><style>.cls-1{fill:#fff;}</style></defs><title>naira_w_1</title><g id="Layer_2" data-name="Layer 2"><g id="Layer_1-2" data-name="Layer 1"><path class="cls-1" d="M7.91,3V.22c0-.21,0-.22.18-.22H9.33c.16,0,.17,0,.17.21v5.5c0,.21,0,.21.18.21H11c.11,0,.16,0,.16.18s0,.43,0,.64,0,.2-.17.2H9.66c-.12,0-.17,0-.16.19v1c0,.13,0,.17.14.17H11c.11,0,.16,0,.16.19s0,.46,0,.68,0,.18-.15.18H9.92c-.14,0-.3-.07-.39,0s0,.31,0,.47v4.84c0,.26,0,.26-.21.26H7.61c-.1,0-.15-.05-.19-.17-.18-.5-.34-1-.54-1.51-.07-.16-.12-.34-.18-.51-.18-.56-.39-1.1-.58-1.65-.13-.35-.24-.7-.36-1.05s-.16-.41-.23-.62-.08-.11-.14-.1H3.48c-.14,0-.12.1-.12.21v5.11a.48.48,0,0,0,0,.12c0,.14,0,.18-.15.18H1.94c-.14,0-.17-.06-.17-.21V9.53c0-.13,0-.18-.15-.18H.18C0,9.36,0,9.35,0,9.14s0-.37,0-.55,0-.17.14-.17l1.08-.07.44,0c.08,0,.11-.05.11-.14V7.06c0-.11-.05-.13-.13-.13H.2c-.2,0-.2,0-.2-.23V6.19C0,6.09,0,6,.11,6L.82,6l.8-.05c.13,0,.15-.07.15-.2V.22C1.77,0,1.77,0,2,0H3.67c.1,0,.14,0,.18.16.17.49.36,1,.53,1.48.1.3.21.6.32.9.19.53.37,1.07.57,1.61.14.36.26.74.39,1.11.06.19.14.38.21.57A.13.13,0,0,0,6,5.92H7.79c.12,0,.12-.07.12-.18Zm-4.14,3h.36c.19,0,.21,0,.13-.23S4.1,5.18,4,4.93C3.81,4.29,3.61,3.64,3.41,3L3.08,1.9s0-.11-.07-.09,0,.07,0,.11l.09.94c0,.68,0,1.37.13,2a8.67,8.67,0,0,1,.06.89c0,.11,0,.14.13.13Zm1.35,2.4C5,7.85,4.8,7.46,4.68,7c0-.06,0-.1-.1-.1H3.4s-.08,0-.07.08a8.5,8.5,0,0,1,0,1.13c0,.13,0,.18.15.18H5.12Zm2.43,1H7.23c-.17,0-.18,0-.12.2s.21.67.31,1,.23.75.34,1.12.27.86.4,1.29c0,.07,0,.21.1.19s0-.15,0-.23L8.2,11.83c0-.78-.09-1.57-.16-2.35,0-.09,0-.13-.11-.12ZM7.08,6.93h0c-.24,0-.48,0-.72,0s-.1,0-.06.13c.13.37.28.74.39,1.14,0,.08,0,.12.13.12h1c.08,0,.1,0,.1-.14a10.55,10.55,0,0,1-.06-1.13c0-.11,0-.12-.13-.12Z"/></g></g></svg>